<?xml version="1.0" standalone="no"?>
<!DOCTYPE svg PUBLIC "-//W3C//DTD SVG 20010904//EN"
 "http://www.w3.org/TR/2001/REC-SVG-20010904/DTD/svg10.dtd">
<svg version="1.0" xmlns="http://www.w3.org/2000/svg"
 width="225.000000pt" height="225.000000pt" viewBox="0 0 225.000000 225.000000"
 preserveAspectRatio="xMidYMid meet">
<metadata>
Created by potrace 1.14, written by Peter Selinger 2001-2017
</metadata>
<g transform="translate(0.000000,225.000000) scale(0.100000,-0.100000)"
fill="#000000" stroke="none">
<path d="M135 2239 c-35 -10 -89 -59 -113 -103 -16 -28 -17 -113 -17 -1011 0
-898 1 -983 17 -1011 25 -46 78 -93 117 -104 49 -13 1923 -13 1972 0 39 11 92
58 117 104 16 28 17 113 17 1011 0 898 -1 983 -17 1011 -25 46 -78 93 -117
104 -45 12 -1933 12 -1976 -1z m-43 -63 c-22 -24 -46 -62 -53 -85 -7 -23 -16
-41 -21 -41 -24 0 31 109 72 144 47 39 48 32 2 -18z m1671 -34 c-151 -1 -243
-6 -243 -12 0 -6 93 -10 250 -10 216 0 250 2 250 15 0 8 5 15 10 15 6 0 13 -7
16 -15 4 -8 12 -15 19 -15 7 0 19 -8 26 -17 12 -15 12 -16 -6 -9 -25 9 -1110
9 -1487 0 -153 -4 -278 -11 -278 -15 0 -5 -36 -9 -80 -9 -73 0 -105 12 -62 23
16 4 16 5 -1 6 -10 1 -22 -10 -28 -25 -5 -15 -12 -24 -15 -21 -9 8 28 67 42
67 7 0 14 6 17 14 5 12 141 14 909 13 497 -1 794 -3 661 -5z m-304 -389 c3 -6
47 -12 97 -15 143 -8 137 3 136 -237 -1 -211 -5 -234 -50 -275 -12 -10 -26
-15 -31 -11 -6 3 -11 -1 -11 -9 0 -19 -33 -30 -62 -20 -19 6 -21 5 -10 -8 10
-13 -5 -16 -125 -21 -197 -10 -473 -8 -582 3 -105 11 -154 32 -214 93 l-37 38
-1 102 c-1 66 -4 93 -9 77 -7 -21 -8 -18 -11 20 -2 43 -3 43 -8 -15 l-6 -60
-8 94 c-5 54 -4 97 1 100 5 3 14 15 21 26 12 19 12 19 8 -2 -3 -13 -1 -23 4
-23 5 0 9 19 9 43 0 23 4 48 8 55 12 17 68 32 125 32 28 0 46 4 42 10 -8 14
103 18 424 15 175 -1 286 -6 290 -12z m268 -243 l-1 -145 -5 125 c-6 122 -7
123 -12 50 -4 -55 -5 -46 -3 35 3 127 3 127 13 100 5 -11 8 -85 8 -165z
m-1187 129 c0 -5 -4 -9 -10 -9 -5 0 -10 7 -10 16 0 8 5 12 10 9 6 -3 10 -10
10 -16z m370 -579 c0 -17 -7 -20 -50 -20 l-50 0 0 -150 c0 -143 -1 -150 -20
-150 -19 0 -20 7 -20 150 l0 150 -50 0 c-43 0 -50 3 -50 20 0 19 7 20 120 20
113 0 120 -1 120 -20z m290 -37 c0 -44 3 -54 12 -45 20 20 65 14 95 -12 26
-23 28 -29 28 -101 0 -74 -1 -78 -33 -106 -37 -33 -58 -36 -90 -13 -12 8 -22
10 -22 5 0 -6 -7 -11 -15 -11 -12 0 -15 16 -16 78 0 42 -2 119 -5 170 l-4 92
25 0 c24 0 25 -3 25 -57z m-232 -133 c1 -51 8 -100 14 -107 14 -18 38 -16 60
4 15 13 18 32 18 110 0 86 1 93 20 93 19 0 20 -7 20 -125 0 -104 -2 -125 -15
-125 -8 0 -15 7 -15 16 0 13 -5 12 -26 -5 -15 -12 -34 -21 -44 -21 -10 0 -29
9 -44 21 -25 20 -26 24 -26 130 0 100 2 110 18 107 14 -3 17 -17 20 -98z m554
89 c23 -12 48 -66 48 -104 0 -25 -1 -25 -81 -25 -79 0 -80 0 -73 -22 18 -61
69 -76 102 -31 13 18 25 24 36 20 15 -6 15 -9 2 -35 -18 -35 -65 -57 -102 -48
-86 22 -113 159 -44 228 30 30 75 37 112 17z m-118 -466 c61 -5 67 -8 51 -20
-15 -10 -85 -13 -329 -13 -306 0 -386 5 -386 21 0 4 24 10 53 12 96 6 541 7
611 0z m-809 -153 c-27 -5 -75 -8 -105 -7 l-55 0 65 7 c36 4 83 7 105 7 37 0
37 0 -10 -7z m1205 2 c0 -5 -206 -9 -457 -8 l-458 0 400 6 c220 3 426 6 458 8
31 1 57 -2 57 -6z"/>
<path d="M1000 2130 c-95 -5 -58 -6 158 -8 183 -1 282 2 282 8 0 11 -216 11
-440 0z"/>
<path d="M398 2103 c45 -2 119 -2 165 0 45 1 8 3 -83 3 -91 0 -128 -2 -82 -3z"/>
<path d="M820 1498 c48 -99 50 -106 50 -191 l0 -88 33 3 32 3 0 80 c0 76 3 86
52 188 l52 107 -33 0 c-30 0 -34 -5 -67 -71 l-34 -71 -33 71 c-31 68 -34 71
-67 71 l-34 0 49 -102z"/>
<path d="M562 1555 c0 -16 2 -22 5 -12 2 9 2 23 0 30 -3 6 -5 -1 -5 -18z"/>
<path d="M1120 1503 c-65 -21 -90 -62 -90 -148 0 -89 35 -134 106 -135 68 0
104 48 104 142 0 65 -23 112 -65 132 -18 9 -35 16 -37 15 -1 0 -10 -3 -18 -6z
m48 -75 c10 -13 15 -51 13 -95 -2 -48 -61 -71 -81 -32 -15 28 -15 106 0 124
15 18 54 19 68 3z"/>
<path d="M1288 1483 c-2 -10 -4 -64 -4 -119 1 -86 4 -105 20 -123 23 -25 77
-28 99 -6 13 13 16 13 21 0 3 -8 17 -15 31 -15 l25 0 0 140 0 140 -30 0 -30 0
0 -95 c0 -81 -3 -98 -20 -115 -42 -42 -60 -3 -60 131 0 77 -1 79 -24 79 -14 0
-25 -7 -28 -17z"/>
<path d="M1448 1173 c6 -2 18 -2 25 0 6 3 1 5 -13 5 -14 0 -19 -2 -12 -5z"/>
<path d="M1210 935 c-18 -22 -24 -91 -10 -125 17 -41 57 -51 82 -20 25 31 25
120 0 143 -23 21 -56 22 -72 2z"/>
<path d="M1433 938 c-31 -40 -25 -48 37 -48 33 0 60 3 60 8 0 4 -7 18 -16 30
-17 24 -65 30 -81 10z"/>
</g>
</svg>
